<svg width="40" height="40" viewBox="0 0 40 40" fill="none" xmlns="http://www.w3.org/2000/svg">
<path d="M34.0632 23.1187V23.3498L34.1646 23.5576L38.0926 31.5998L38.0932 31.601C38.2243 31.8686 38.2082 32.185 38.0505 32.4379C37.8929 32.6909 37.616 32.8447 37.3179 32.8448H25.8094H24.8094V33.8448V34.0266C24.8094 36.7733 22.5827 39 19.836 39C17.0892 39 14.8625 36.7733 14.8625 34.0266V33.8448V32.8448H13.8625H2.36337C2.06531 32.8447 1.78839 32.6909 1.63073 32.4379C1.47307 32.185 1.45697 31.8686 1.58811 31.601L1.58867 31.5998L5.51662 23.5576L5.61807 23.3498V23.1187V15.4445H5.61813L5.61801 15.4335C5.55408 9.63073 9.09919 4.39797 14.512 2.30557L14.5197 2.30259L14.5266 2.29976L14.5269 2.29967L14.5269 2.29965L14.5271 2.29958L14.5274 2.29947L14.5305 2.29821L14.5494 2.29071C14.5672 2.28373 14.5951 2.27288 14.6325 2.25871C14.7072 2.23036 14.8196 2.18879 14.9639 2.13839C15.2531 2.03743 15.6685 1.90183 16.1657 1.76612C17.1704 1.4919 18.4638 1.22998 19.7093 1.22998C20.9584 1.22998 22.3207 1.49312 23.3987 1.76998C23.9316 1.90683 24.3823 2.04367 24.6984 2.14581C24.8562 2.19681 24.9798 2.23897 25.0627 2.2679C25.1042 2.28236 25.1354 2.2935 25.1555 2.30076L25.1725 2.30691C30.5405 4.45406 34.0618 9.65274 34.0632 15.4352C34.0632 15.4353 34.0632 15.4353 34.0632 15.4354V23.1187Z" stroke="#46B843" stroke-width="2"/>
</svg>
